<svg width="296" height="112" viewBox="0 0 296 112" fill="none" xmlns="http://www.w3.org/2000/svg">
<rect width="296" height="112" fill="white"/>
<path fill-rule="evenodd" clip-rule="evenodd" d="M151.986 18C152.156 18 152.326 18 152.496 18.1693C153.176 18.3386 153.687 18.6772 153.857 19.5237V24.9413C153.857 26.465 153.857 28.158 153.687 29.6817V29.851C153.687 30.1896 153.857 30.3589 154.197 30.3589H154.367C154.367 30.6975 154.367 31.2054 153.857 31.3747C153.517 31.544 153.006 31.544 152.666 31.544C152.326 31.3747 152.156 31.2054 152.156 30.8668C152.156 30.8156 152.141 30.7488 152.124 30.676C152.084 30.5081 152.038 30.3077 152.156 30.1896V26.465C152.12 26.465 152.038 26.4574 151.926 26.4469C151.511 26.4083 150.687 26.3317 150.286 26.465V31.3747C149.776 31.544 149.435 31.544 148.925 31.544C148.755 31.544 148.585 31.3747 148.585 31.2054V30.1896C148.585 27.9887 148.585 25.6185 148.755 23.4176V20.2009C148.755 19.1851 149.265 18.5079 150.286 18.1693C150.456 18.1693 150.626 18.1693 150.796 18H151.986ZM150.456 24.9413H152.326V20.3702C152.326 19.8623 152.156 19.693 151.646 19.5237H151.136C150.796 19.5237 150.456 19.8623 150.456 20.2009V24.9413Z" fill="#313030"/>
<path d="M94 35.2686C94 35.3533 94.0425 35.3956 94.085 35.4379C94.1275 35.4802 94.1701 35.5226 94.1701 35.6072L97.2309 38.6546C100.201 41.5268 103.213 44.4411 106.225 47.3555L106.244 47.374C109.262 50.2943 112.28 53.2146 115.256 56.0926C115.426 56.0926 115.426 56.0926 115.596 56.2618L94.3401 77.4244L95.5304 78.6095L116.446 57.2777C118.487 59.14 120.357 61.0023 122.228 62.8646L123.078 62.0181L117.296 56.2619C118.339 55.2241 119.337 54.1864 120.313 53.1713C121.248 52.1992 122.163 51.2473 123.078 50.3364L122.228 49.4899C121.611 50.1044 120.993 50.7374 120.37 51.3766C119.104 52.6744 117.813 53.9984 116.446 55.2461L95.1903 34.0835L94 35.2686Z" fill="#313030"/>
<path fill-rule="evenodd" clip-rule="evenodd" d="M203 61.0023V60.833H201.98V59.14C201.81 58.1242 201.47 57.1084 200.959 56.2619C200.619 55.754 200.279 55.2461 199.769 54.7382C199.769 54.7382 199.599 54.7382 199.599 54.5689C199.704 54.5689 199.744 54.5042 199.8 54.4148C199.834 54.3596 199.874 54.2949 199.939 54.2303C200.789 53.2145 201.47 52.0294 201.81 50.675C201.98 50.5057 201.98 50.1671 201.98 49.9978V48.3047C201.81 47.2889 201.47 46.2732 200.789 45.596C199.599 44.4109 197.899 43.5644 196.028 44.2416H195.858C195.858 44.1569 195.901 44.1146 195.943 44.0723C195.986 44.0299 196.028 43.9876 196.028 43.903C196.135 43.6894 196.259 43.4591 196.39 43.2172L196.391 43.2156L196.391 43.2146C196.674 42.6901 196.986 42.1112 197.218 41.5327C197.388 41.1941 197.559 40.6863 197.559 40.1784C197.729 38.824 197.218 37.3002 195.858 36.623C195.348 36.2844 194.498 36.1151 193.817 36.2844C192.627 36.623 191.607 37.4695 191.097 38.6546C190.927 38.8239 190.927 39.1624 190.927 39.3317C190.927 39.8396 191.267 40.3477 191.777 40.517C192.287 40.6863 192.797 40.517 193.137 40.1784C193.307 40.1784 193.477 40.009 193.477 39.8397C193.988 38.9932 193.477 38.1467 192.457 38.1467H192.117C192.117 37.9774 192.117 37.9774 192.287 37.8082C192.967 37.131 193.817 36.7924 194.838 36.7924C195.858 36.9617 196.538 37.6389 196.708 38.4854C196.822 38.7111 196.784 38.9368 196.746 39.1625C196.727 39.2754 196.708 39.3883 196.708 39.5011C196.538 40.5169 196.198 41.3635 195.688 42.21C195.433 42.7179 195.135 43.2681 194.838 43.8183L194.837 43.8193C194.54 44.3692 194.242 44.919 193.988 45.4266C193.903 45.596 193.817 45.8076 193.732 46.0192C193.647 46.2308 193.562 46.4425 193.477 46.6117C193.307 47.2889 193.137 47.9662 193.137 48.6434C193.137 49.8285 193.988 51.0136 195.008 51.3522C195.036 51.3614 195.063 51.3707 195.09 51.3799C195.127 51.3924 195.163 51.4049 195.198 51.417C195.609 51.5596 195.924 51.6689 196.368 51.5215C197.729 51.1829 198.919 49.9978 199.089 48.6434C199.089 47.9662 198.919 47.4583 198.579 47.1197C197.899 46.6118 197.048 46.6118 196.538 47.289C196.198 47.7969 196.198 48.3048 196.538 48.8127C197.048 49.3206 197.559 49.4899 198.069 49.1512C198.154 49.1512 198.196 49.1089 198.239 49.0666C198.281 49.0243 198.324 48.982 198.409 48.982C198.239 49.1513 198.239 49.3206 198.239 49.4899C197.899 50.3364 197.388 50.8443 196.368 51.0136C195.008 51.1829 194.158 50.1671 194.328 48.982C194.413 48.728 194.498 48.5164 194.583 48.3048C194.668 48.0932 194.753 47.8814 194.838 47.6276C194.945 47.4131 195.07 47.1817 195.201 46.9386C195.484 46.4143 195.796 45.8358 196.028 45.2574C196.028 45.2574 196.028 45.0881 196.198 45.0881C196.305 45.0527 196.404 45.0174 196.498 44.9836C196.858 44.8555 197.155 44.7495 197.559 44.7495C198.579 44.7495 199.429 45.088 200.109 45.7652C200.619 46.2731 200.959 46.781 201.13 47.4582C201.449 48.2544 201.318 48.9009 201.16 49.6792L201.13 49.8285C200.619 51.3522 199.769 52.5373 198.749 53.5531H198.579C198.494 53.5531 198.451 53.5107 198.409 53.4684C198.366 53.4261 198.324 53.3838 198.239 53.3838C197.218 52.7066 196.028 52.1987 194.668 52.0294C192.457 51.6908 190.757 52.5373 189.566 54.2303C189.501 54.2949 189.445 54.3486 189.396 54.3945C189.263 54.5211 189.192 54.588 189.184 54.6613C189.176 54.7435 189.247 54.8339 189.396 55.0254C189.445 55.0873 189.501 55.1598 189.566 55.2461C190.927 57.1084 192.967 57.7856 195.178 57.447C196.368 57.2777 197.388 56.7698 198.409 56.0926C198.579 56.0926 198.749 55.9233 198.749 55.9233H198.919C199.939 56.9391 200.619 57.9549 201.13 59.3093C201.3 60.1558 201.47 61.0023 201.3 61.8488C200.959 63.7111 198.579 65.4041 196.368 64.3883C196.303 64.3236 196.238 64.2836 196.183 64.2495C196.093 64.1943 196.028 64.1543 196.028 64.0497C195.642 63.5368 195.353 62.9267 195.088 62.3667C195.003 62.1874 194.92 62.013 194.838 61.8488L194.328 60.3251C194.158 59.3093 194.838 58.2935 196.028 58.4628C197.048 58.4628 197.899 58.9707 198.239 59.9865V60.3251C198.154 60.3251 198.111 60.2827 198.069 60.2404C198.026 60.1981 197.984 60.1558 197.899 60.1558C197.778 60.1558 197.679 60.1345 197.586 60.1146C197.417 60.0783 197.268 60.0464 197.048 60.1558C196.538 60.3251 196.198 60.6637 196.198 61.1716C196.198 61.8488 196.538 62.1874 197.048 62.526C197.559 62.6953 198.069 62.6953 198.409 62.3567C199.089 61.8488 199.259 61.3409 199.089 60.6637C198.749 59.3093 197.899 58.4628 196.708 57.9549C195.858 57.6163 195.008 57.7856 194.328 58.2935C193.307 58.9707 192.967 59.9865 193.137 61.1716C193.307 61.8488 193.647 62.6953 193.988 63.3725C194.158 63.6264 194.285 63.8803 194.413 64.1342C194.54 64.3881 194.668 64.6423 194.838 64.8962C195.348 65.7426 195.858 66.7582 196.368 67.7739C196.653 68.3412 196.819 69.0276 196.965 69.6335L196.965 69.6352C196.993 69.752 197.021 69.8658 197.048 69.9752C197.218 71.1603 196.708 72.1761 195.518 72.3454C194.498 72.684 193.477 72.1761 192.797 71.3296C192.797 71.3296 192.627 71.1603 192.627 70.991H192.967C193.647 70.991 194.328 70.6524 194.328 69.8059C194.328 69.1287 193.988 68.6208 193.307 68.4515C192.967 68.4515 192.797 68.4515 192.457 68.6208C192.117 68.9594 191.777 69.4673 191.947 69.9752C191.947 70.3138 191.947 70.4831 192.117 70.6524C192.627 71.4989 193.307 72.1761 194.328 72.684C194.838 73.0226 195.518 73.0226 196.198 72.8533C197.559 72.5147 198.579 71.1603 198.749 69.8059C198.919 68.9594 198.749 68.2822 198.409 67.605C198.239 67.1818 198.026 66.7586 197.814 66.3355C197.601 65.9122 197.388 65.4887 197.218 65.0655C197.218 64.9808 197.176 64.9385 197.133 64.8962C197.091 64.8539 197.048 64.8115 197.048 64.7269C197.218 64.8962 197.218 64.8962 197.388 64.8962C198.069 65.2348 198.749 65.2348 199.429 65.0655C201.13 64.7269 202.83 63.2032 203 61.0023ZM191.947 54.7382C193.477 55.9233 196.028 55.754 197.559 54.7382C195.858 53.5531 193.477 53.5531 191.947 54.7382Z" fill="#313030"/>
<path d="M150.724 92.3831C150.822 92.6377 150.912 92.8693 151.306 93H152.156C152.156 92.8307 152.326 92.8307 152.326 92.8307C152.666 92.6614 152.836 92.4921 152.836 91.9842H152.666C152.604 91.9532 152.547 91.9278 152.496 91.905C152.269 91.8035 152.156 91.7528 152.156 91.4763V89.9526C152.326 87.7517 152.326 85.5508 152.326 83.3499V82.6727C152.156 82.1648 151.816 81.8262 151.306 81.6569C150.626 81.4876 149.945 81.6569 149.435 81.9955L149.265 82.1648C148.755 81.4876 148.245 81.3183 147.735 81.6569C147.395 81.8262 147.225 82.1648 147.225 82.5034H147.395C147.457 82.5345 147.514 82.5599 147.565 82.5827C147.792 82.6841 147.905 82.7348 147.905 83.0113V83.1806C147.735 85.5508 147.735 87.7517 147.735 90.1219V92.4921C147.735 92.8307 147.735 92.8307 148.075 92.8307H149.095V90.7991C149.265 88.4289 149.265 85.8894 149.265 83.5192C149.265 83.1807 149.265 83.0113 149.605 82.842C149.775 82.6727 149.775 82.6727 149.945 82.6727C150.456 82.5034 150.796 82.842 150.796 83.3499V85.0429C150.626 87.2438 150.626 89.4447 150.626 91.6456V92.1535C150.664 92.2307 150.694 92.3079 150.724 92.3831Z" fill="#313030"/>
<path d="M126.309 57.7855H132.771V66.0812H141.443C142.633 66.0812 143.824 65.912 145.014 65.5734C145.694 65.4041 146.204 65.0655 146.714 64.5576C147.905 63.5418 148.415 62.1873 148.245 60.6636C148.245 59.9865 148.075 59.4786 147.905 58.9708C147.225 57.6164 146.204 56.7698 144.674 56.2619C144.504 56.2619 144.334 56.2618 144.164 56.0925C144.334 56.0925 144.334 56.0925 144.334 55.9234C146.204 55.4155 147.225 54.0609 147.395 52.1986C147.565 50.5056 146.884 48.9819 145.354 47.9661C144.844 47.6275 144.334 47.4582 143.824 47.289C143.7 47.2643 143.58 47.2396 143.462 47.2155C142.772 47.074 142.169 46.9503 141.443 46.9503H132.771V54.7381H126.309V43.7336C126.309 42.5485 127.159 41.702 128.349 41.5327H152.496C153.346 41.702 154.026 42.5485 154.026 43.5643V67.4357C153.856 68.2822 153.006 68.9594 152.156 68.9594H128.009C126.989 68.7901 126.479 67.9436 126.309 66.9277V57.7855Z" fill="#313030"/>
<path fill-rule="evenodd" clip-rule="evenodd" d="M171.371 48.6433C169.501 47.4582 167.46 46.9503 165.42 46.9503C164.059 46.9503 162.869 47.1196 161.679 47.7968C156.917 49.4898 154.367 54.2302 155.557 58.9706C156.237 62.018 158.108 64.0497 160.828 65.4041C163.039 66.4199 165.25 66.5892 167.63 66.0813C169.671 65.5733 171.371 64.7269 172.732 63.3725C174.942 61.1716 175.792 58.4628 175.452 55.4154C175.112 52.5373 173.752 50.3363 171.371 48.6433ZM165.42 49.8284C169.161 49.8284 172.222 52.8758 172.222 56.6005C172.222 60.1558 169.501 63.3725 165.25 63.3725C161.509 63.3725 158.448 60.3251 158.448 56.6005C158.448 52.7065 161.679 49.8284 165.42 49.8284Z" fill="#313030"/>
<path d="M161.169 32.0519C160.658 32.0519 160.148 32.0519 159.808 31.8826C159.638 31.8826 159.468 31.7133 159.638 31.544C159.638 31.2054 159.638 30.8668 159.808 30.6975C159.978 29.7665 160.106 28.8778 160.233 27.9891C160.361 27.1003 160.488 26.211 160.658 25.2799L161.169 21.2167V20.7088C161.169 20.3702 160.999 20.2009 160.658 20.0316C160.148 19.8623 159.808 20.0316 159.468 20.3702C159.468 20.3702 159.298 20.5395 159.298 20.7088C159.128 21.5553 158.958 22.5711 158.958 23.4176C158.865 24.2511 158.721 25.0846 158.582 25.8904C158.467 26.5576 158.355 27.2059 158.278 27.8194C158.108 28.8352 157.938 30.0203 157.938 31.0361V31.544C157.428 31.544 156.917 31.544 156.577 31.3747C156.407 31.3747 156.407 31.2054 156.407 31.0361C156.407 30.6975 156.407 30.5282 156.577 30.1896C156.747 29.0891 156.917 27.9463 157.088 26.8035C157.258 25.6609 157.428 24.5179 157.598 23.4176L158.108 20.3702V20.2009C158.108 19.693 158.108 19.693 157.598 19.5237H157.428C157.428 19.0158 157.598 18.6772 158.108 18.6772C158.334 18.5643 158.561 18.6019 158.788 18.6396C158.901 18.6584 159.015 18.6772 159.128 18.6772C159.298 18.6772 159.468 18.8464 159.638 19.0157C159.638 19.1003 159.681 19.1428 159.723 19.1851C159.766 19.2274 159.808 19.2697 159.808 19.3544C160.318 19.0158 160.999 18.8465 161.509 19.0158C162.189 19.1851 162.699 19.3544 163.039 20.0316C163.124 20.0316 163.167 19.9893 163.209 19.9469C163.252 19.9046 163.294 19.8623 163.379 19.8623C164.059 19.5237 164.91 19.3544 165.59 19.693C166.27 20.0316 166.61 20.5395 166.61 21.2167C166.61 21.7246 166.61 22.2325 166.44 22.7404C166.355 23.5022 166.227 24.2641 166.1 25.0259C165.972 25.7878 165.845 26.5496 165.76 27.3115C165.675 27.9879 165.59 28.6221 165.505 29.2562L165.505 29.2582C165.42 29.893 165.335 30.5282 165.25 31.2054V31.544C165.25 31.7133 165.42 31.8826 165.59 32.0519H165.76C165.76 32.3905 165.59 32.8984 165.08 32.8984C164.74 33.0677 164.399 33.0677 163.889 32.8984C163.549 32.7291 163.379 32.3905 163.379 32.0519V31.2054C163.549 29.9357 163.719 28.7082 163.889 27.4808L163.89 27.4766C164.06 26.2506 164.23 25.0245 164.4 23.7562C164.485 23.4176 164.527 23.0791 164.57 22.7405C164.612 22.4019 164.655 22.0632 164.74 21.7246C164.74 21.386 164.57 21.0474 164.229 20.8781C163.889 20.7088 163.549 20.8781 163.209 21.0474L162.869 21.386L162.359 24.4334C162.266 25.2668 162.122 26.1002 161.983 26.9059C161.868 27.5732 161.756 28.2217 161.679 28.8352C161.509 29.8509 161.339 30.8669 161.339 32.0519H161.169Z" fill="#313030"/>
<path d="M146.715 31.7133C147.055 31.544 147.395 31.0361 147.225 30.5282C147.055 30.3589 147.055 30.3589 146.885 30.5282C146.822 30.4971 146.766 30.4718 146.715 30.4489C146.488 30.3475 146.374 30.2968 146.374 30.0203V29.851C146.289 29.0045 146.204 28.2003 146.119 27.3961C146.034 26.592 145.949 25.7878 145.864 24.9413L145.354 20.8781C145.354 20.5395 145.354 20.2009 145.184 19.8623C145.014 19.3544 144.504 19.0158 143.994 18.8465C143.314 18.6772 142.633 18.8465 141.953 19.3544L141.613 19.693L141.443 19.5237C141.273 19.3544 141.103 19.1851 140.933 19.1851C140.593 19.1851 140.253 19.1851 139.913 19.3544C139.573 19.5237 139.403 19.8623 139.573 20.3702H139.743C140.083 20.3702 140.253 20.5395 140.253 20.8781V21.0474C140.253 21.3013 140.295 21.5976 140.338 21.8939C140.38 22.1902 140.423 22.4864 140.423 22.7404C140.423 23.9253 140.593 25.1103 140.763 26.2952C140.848 26.9724 140.933 27.6924 141.018 28.4119C141.103 29.1315 141.188 29.851 141.273 30.5282C141.273 30.7821 141.316 30.9938 141.358 31.2054C141.401 31.417 141.443 31.6286 141.443 31.8826C141.532 32.0593 141.574 32.1438 141.643 32.1842C141.706 32.2212 141.791 32.2212 141.953 32.2212C142.123 32.2212 142.251 32.1789 142.378 32.1366C142.506 32.0942 142.633 32.0519 142.803 32.0519C142.889 32.0519 142.974 32.0096 143.059 31.9673C143.144 31.9249 143.229 31.8826 143.314 31.8826V31.7133C143.229 31.3747 143.186 30.9938 143.144 30.6129C143.101 30.2319 143.059 29.851 142.974 29.5124C142.974 28.3274 142.804 27.1424 142.634 25.9575C142.548 25.4496 142.506 24.9413 142.463 24.4334C142.421 23.9255 142.378 23.4176 142.293 22.9097C142.293 22.6557 142.251 22.3595 142.208 22.0632C142.166 21.7669 142.123 21.4706 142.123 21.2167V20.8781C142.293 20.7088 142.463 20.5395 142.803 20.3702C143.314 20.2009 143.824 20.3702 143.824 21.0474C143.909 21.5553 143.951 22.1054 143.994 22.6556C144.036 23.2058 144.079 23.7562 144.164 24.2641C144.243 25.1316 144.359 26.0358 144.478 26.9597C144.614 28.019 144.753 29.1044 144.844 30.1896C144.844 30.5282 144.844 30.8668 145.014 31.2054C145.184 31.7133 145.524 31.8826 146.034 31.8826C146.234 31.8826 146.374 31.8245 146.491 31.7764C146.574 31.7424 146.644 31.7133 146.715 31.7133Z" fill="#313030"/>
<path d="M136.172 63.2031V57.7855H141.273C141.953 57.7855 142.633 57.7855 143.144 58.1241C143.484 58.2934 143.824 58.4627 143.994 58.632C145.354 59.4785 145.184 61.5101 144.164 62.3566C143.654 62.6952 143.144 63.0339 142.463 63.0339C142.293 63.0339 142.081 63.0762 141.868 63.1185C141.656 63.1608 141.443 63.2031 141.273 63.2031H136.172Z" fill="#313030"/>
<path d="M112.195 28.4966C111.855 28.8352 111.685 29.3431 112.025 29.851C112.705 29.6817 112.875 29.6817 113.385 30.0203C113.385 30.0203 113.555 30.1896 113.555 30.3589C115.086 33.4063 116.956 36.1151 119.167 38.6546L119.677 39.1625C119.847 39.3318 120.187 39.3318 120.527 39.1625C120.697 38.9932 121.037 38.8239 121.377 38.6546C121.548 38.4853 121.718 38.316 121.718 37.9774V37.4695C121.718 36.9616 121.548 36.4537 121.377 35.9458C120.697 33.5756 119.677 31.2054 118.657 28.8352C118.317 27.9888 117.976 27.1421 117.466 26.2957C117.296 25.9571 117.126 25.9571 116.786 26.1264C116.616 26.2111 116.489 26.2957 116.361 26.3804C116.234 26.465 116.106 26.5497 115.936 26.6343C115.851 26.6343 115.808 26.6767 115.766 26.719C115.723 26.7613 115.681 26.8036 115.596 26.8036C116.276 27.6501 116.786 28.4966 117.126 29.3431C118.317 31.8826 119.337 34.5914 120.187 37.3002V37.6388C120.017 37.6388 119.847 37.4695 119.847 37.4695C119.167 36.623 118.487 35.7765 117.806 34.7607C116.446 32.8984 115.256 31.0361 114.236 29.0045C114.151 28.9199 114.065 28.7929 113.98 28.666C113.895 28.539 113.81 28.412 113.725 28.3273C113.385 27.9887 113.045 27.9887 112.705 28.158C112.535 28.158 112.365 28.3273 112.195 28.4966Z" fill="#313030"/>
<path d="M179.874 27.4808C180.044 27.0999 180.214 26.719 180.384 26.2957C180.384 26.1264 180.384 26.1264 180.554 25.9572C180.694 25.6785 180.603 25.5145 180.472 25.2765C180.444 25.2253 180.414 25.1706 180.384 25.1106C180.214 24.9413 180.044 24.772 179.704 24.772C179.194 24.772 179.023 24.772 178.853 25.2799C178.513 25.9571 178.173 26.8037 178.003 27.4809C177.833 27.8195 177.833 28.3273 178.173 28.6659C178.428 29.0044 178.641 29.3006 178.853 29.5967C179.066 29.893 179.279 30.1897 179.534 30.5282C180.044 31.2054 180.044 31.8827 179.704 32.5599L178.683 35.0994C178.343 36.1152 177.493 36.4537 176.303 36.4537C175.623 36.2844 174.942 36.1151 174.432 35.6072C174.092 35.2687 173.752 34.93 173.752 34.5915C173.582 34.2529 173.582 33.9142 173.752 33.5756C173.922 33.1524 174.092 32.7715 174.262 32.3906C174.432 32.0097 174.602 31.6287 174.772 31.2055C174.942 30.8669 175.112 30.8669 175.282 30.8669C175.793 30.8669 176.133 31.0362 176.473 31.2055C176.303 31.6287 176.133 32.0097 175.963 32.3906C175.793 32.7715 175.623 33.1524 175.453 33.5756C175.282 33.9142 175.282 34.2529 175.453 34.5915C175.793 34.9301 176.133 35.0994 176.643 34.9301C176.813 34.9301 177.153 34.7607 177.153 34.4221C177.493 33.7449 177.833 32.8984 178.003 32.2212C178.173 31.7133 178.173 31.3747 177.833 31.0361C177.641 30.7812 177.473 30.5262 177.311 30.2802C177.043 29.873 176.791 29.4905 176.473 29.1739C176.133 28.666 175.963 27.9888 176.303 27.4809C176.521 26.8296 176.809 26.1783 177.077 25.5717C177.227 25.2321 177.371 24.9065 177.493 24.6027C177.833 23.7562 178.683 23.4176 179.534 23.4176C180.384 23.4176 181.064 23.7562 181.574 24.2641C181.744 24.4334 181.914 24.6027 182.084 24.9413C182.424 25.4492 182.424 25.7878 182.254 26.2957C182.084 26.719 181.914 27.0999 181.744 27.4808C181.574 27.8616 181.404 28.2428 181.234 28.6659C181.064 28.8352 180.894 29.0045 180.724 29.0045C180.214 29.0045 179.704 29.0045 179.364 28.6659C179.534 28.2428 179.704 27.8616 179.874 27.4808Z" fill="#313030"/>
<path d="M130.05 28.8352L129.54 27.8195C129.37 27.9041 129.157 27.9888 128.945 28.0734C128.732 28.1581 128.519 28.2427 128.349 28.3274C127.839 28.4967 127.499 28.3274 127.329 27.8195V27.6501L126.309 24.6027C126.139 24.4335 126.139 24.4334 126.139 24.2642C126.139 23.9256 126.139 23.5869 126.479 23.4176C126.479 23.4176 126.649 23.2484 126.819 23.2484C127.329 23.0791 127.669 23.2483 127.839 23.7562L128.349 25.28C128.519 25.28 128.52 25.4493 128.52 25.6186C129.03 25.6186 129.37 25.4492 129.71 25.1106C129.88 24.9413 129.88 24.772 129.88 24.6027L129.37 23.079C129.2 22.4018 128.69 22.0633 128.009 21.894C126.989 21.7247 126.139 22.0633 125.289 22.7405C124.778 23.0791 124.608 23.4176 124.608 23.9255C124.608 24.2641 124.608 24.6028 124.778 24.9414L125.799 27.9887C125.969 28.4966 126.139 29.0046 126.819 29.3432C126.479 29.8511 126.479 30.359 126.649 30.8669C126.819 31.29 126.989 31.7555 127.159 32.221C127.329 32.6865 127.499 33.1524 127.669 33.5757C127.669 33.6603 127.712 33.7026 127.754 33.745C127.797 33.7873 127.839 33.8296 127.839 33.9143C128.179 34.5915 128.86 34.9301 129.54 34.9301C130.39 34.9301 131.07 34.7608 131.75 34.2529C132.09 34.0836 132.261 33.9143 132.431 33.5757C132.453 33.5101 132.475 33.4473 132.496 33.3866C132.639 32.9775 132.749 32.6636 132.601 32.2213C132.601 31.8827 132.431 31.3748 132.261 31.0362C132.09 30.8669 131.92 30.6976 131.75 30.6976C131.24 30.6976 130.73 30.8669 130.39 31.0362C130.56 31.2054 130.56 31.2054 130.56 31.3747C130.56 31.8826 130.73 32.2213 130.9 32.5599C131.07 32.8985 130.9 33.2371 130.56 33.4064C130.475 33.4064 130.39 33.4487 130.305 33.491C130.22 33.5333 130.135 33.5757 130.05 33.5757C129.54 33.745 129.2 33.5757 129.03 33.0678C128.86 32.6445 128.732 32.2212 128.605 31.798C128.477 31.3747 128.349 30.9515 128.179 30.5282C128.009 30.0203 128.179 29.6818 128.69 29.5125H128.86C129.03 29.4278 129.2 29.3855 129.37 29.3432C129.54 29.3008 129.71 29.2585 129.88 29.1739C130.05 29.1739 130.05 29.0045 130.05 28.8352Z" fill="#313030"/>
<path d="M170.861 30.8668C171.371 30.8668 171.882 31.0361 172.222 31.3747C172.392 31.544 172.392 31.7132 172.392 31.8825C172.307 32.1365 172.264 32.3482 172.222 32.5598C172.179 32.7715 172.137 32.9831 172.052 33.237C171.882 33.9142 171.201 34.2528 170.521 34.4221C169.671 34.5914 168.821 34.2528 168.14 33.7449C167.46 33.237 167.12 32.3905 167.29 31.544C167.46 31.0361 167.588 30.5705 167.715 30.1049C167.843 29.6394 167.97 29.1738 168.14 28.6659C168.311 28.158 168.481 27.9887 168.991 27.4808C168.991 27.4808 168.991 27.3115 168.821 27.3115C168.651 26.9729 168.651 26.465 168.821 26.1264L168.822 26.1235C169.161 24.9394 169.501 23.7554 169.841 22.7404C170.181 21.7246 170.861 21.2167 171.882 21.2167C172.562 21.2167 173.242 21.386 173.922 21.8939C174.432 22.2325 174.772 22.5711 174.772 23.2483V23.9255L174.262 25.4492C174.231 25.5113 174.206 25.5677 174.183 25.6183C174.081 25.8441 174.03 25.9571 173.752 25.9571C173.412 25.9571 172.902 25.9571 172.562 25.6185V25.4492L172.562 25.4483C172.732 24.9407 172.902 24.433 173.072 23.7562C173.242 23.2483 173.072 23.079 172.562 22.9097H172.222C171.712 22.7404 171.371 23.079 171.201 23.4176C171.116 23.8409 170.989 24.2218 170.861 24.6027C170.734 24.9837 170.606 25.3646 170.521 25.7878C170.436 25.9571 170.394 26.1264 170.351 26.2957C170.309 26.465 170.266 26.6343 170.181 26.8036C170.011 27.3115 170.181 27.6501 170.691 27.8194C170.776 27.8194 170.904 27.8618 171.031 27.9041C171.159 27.9464 171.286 27.9887 171.371 27.9887C171.541 27.9887 171.882 27.9887 172.052 28.158C172.052 28.4966 172.052 29.0045 171.882 29.3431C171.882 29.5124 171.711 29.5124 171.541 29.5124C171.371 29.4278 171.201 29.3855 171.031 29.3431C170.861 29.3008 170.691 29.2585 170.521 29.1738H170.181C169.671 29.1738 169.501 29.3431 169.331 29.6817L168.821 31.2054C168.736 31.3747 168.693 31.544 168.651 31.7133C168.608 31.8826 168.566 32.0519 168.481 32.2212C168.311 32.7291 168.481 33.0677 168.991 33.237C169.076 33.237 169.161 33.2794 169.246 33.3217C169.331 33.364 169.416 33.4063 169.501 33.4063C169.841 33.4063 170.181 33.237 170.181 32.8984C170.266 32.7291 170.309 32.5598 170.351 32.3905C170.394 32.2212 170.436 32.0519 170.521 31.8826C170.549 31.7462 170.572 31.6273 170.592 31.5239C170.696 30.9866 170.719 30.8668 170.861 30.8668Z" fill="#313030"/>
<path d="M183.105 31.0361C182.765 31.544 182.594 32.0519 182.765 32.7291C182.254 32.8984 181.914 33.0677 182.084 33.5756C181.574 34.4221 181.064 35.2686 180.554 36.2844C180.214 36.9616 180.214 37.6388 180.724 38.316C180.724 38.4853 180.894 38.6546 181.064 38.8239C181.404 39.1625 181.914 39.3318 182.424 39.5011C182.764 39.6704 183.105 39.6705 183.445 39.6705C183.955 39.6705 184.295 39.5011 184.635 38.9932C184.72 38.8239 184.848 38.6123 184.975 38.4007C185.103 38.1891 185.23 37.9774 185.315 37.8081C185.485 37.6388 185.485 37.4695 185.315 37.3002C184.975 36.7923 184.635 36.623 184.125 36.4537C184.125 36.5384 184.082 36.5807 184.04 36.623C183.997 36.6654 183.955 36.7077 183.955 36.7924L183.445 37.8081C183.445 37.9774 183.275 38.1467 183.105 38.1467C182.765 38.316 182.254 38.1467 181.914 37.8081C181.744 37.4695 181.744 37.131 181.914 36.7924C182.084 36.1151 182.424 35.6072 182.765 35.0993C182.85 35.0147 182.892 34.8877 182.935 34.7607C182.977 34.6338 183.02 34.5068 183.105 34.4221C183.275 34.0835 183.785 33.9142 184.125 34.0835C184.21 34.0835 184.252 34.1259 184.295 34.1682C184.337 34.2105 184.38 34.2528 184.465 34.2528C184.635 34.3375 184.763 34.4221 184.89 34.5068C185.018 34.5914 185.145 34.6761 185.315 34.7607C185.485 34.93 185.485 34.93 185.655 34.7607C185.995 34.4221 186.165 33.9142 186.165 33.5756C186.08 33.491 185.953 33.4487 185.825 33.4063C185.698 33.364 185.57 33.3217 185.485 33.237C185.355 33.1724 185.25 33.1324 185.161 33.0983C185.015 33.043 184.91 33.0031 184.805 32.8984C184.295 32.7291 184.295 32.3905 184.465 31.8826C184.72 31.3748 185.018 30.867 185.315 30.3592C185.613 29.8513 185.91 29.3431 186.165 28.8352C186.506 28.4966 186.846 28.3273 187.186 28.4966C187.356 28.4966 187.526 28.4966 187.696 28.6659C187.726 28.7259 187.756 28.7806 187.784 28.8318C187.915 29.0698 188.006 29.2338 187.866 29.5124C187.866 29.5971 187.823 29.6394 187.781 29.6817C187.738 29.7241 187.696 29.7664 187.696 29.851C187.526 30.105 187.398 30.3589 187.271 30.6129C187.143 30.8668 187.016 31.1208 186.846 31.3747C187.186 31.7133 187.526 31.8826 188.036 31.8826C188.206 31.8826 188.376 31.7134 188.546 31.5441C188.716 31.2901 188.844 31.0361 188.971 30.7822C189.099 30.5282 189.226 30.2743 189.396 30.0203C189.566 29.5124 189.566 29.0045 189.396 28.4966C189.311 28.412 189.226 28.285 189.141 28.158C189.056 28.0311 188.971 27.9041 188.886 27.8194C188.376 27.4808 187.866 27.1422 187.186 26.9729C186.676 26.8036 186.335 26.8036 185.995 26.9729C185.485 27.1422 185.145 27.4808 184.805 27.9887C184.125 29.0045 183.615 30.0204 183.105 31.0361Z" fill="#313030"/>
<path d="M136.172 54.9074V49.8284H141.103C141.613 49.8284 142.293 49.8284 142.803 49.9977C143.484 50.167 144.164 50.6749 144.334 51.5214C144.674 52.5372 144.504 53.8916 142.974 54.5688C142.463 54.7381 141.953 54.9074 141.443 54.9074H136.172Z" fill="#313030"/>
<path fill-rule="evenodd" clip-rule="evenodd" d="M132.601 78.6094C132.261 78.6094 131.92 78.7787 131.75 79.2866C132.183 79.43 132.249 79.5735 132.362 79.8198L132.363 79.8209C132.383 79.865 132.405 79.9125 132.431 79.9638C132.261 80.1331 132.261 80.1331 132.261 80.3024C131.836 81.7411 131.368 83.1797 130.901 84.6184L130.9 84.6201C130.433 86.0587 129.965 87.4981 129.54 88.9367C129.37 88.9367 129.37 89.106 129.37 89.2753C129.54 89.4446 129.54 89.4447 129.71 89.4447C130.05 89.5293 130.348 89.614 130.645 89.6986C130.943 89.7832 131.24 89.8679 131.58 89.9525C131.665 89.9525 131.793 89.9949 131.92 90.0372C132.048 90.0795 132.176 90.1219 132.261 90.1219C133.281 90.2912 133.961 89.7832 134.301 88.7674C134.386 88.4289 134.471 88.1327 134.556 87.8366C134.641 87.5403 134.726 87.2437 134.811 86.9052C134.981 86.3973 134.981 85.8893 134.641 85.3814C135.151 85.2121 135.321 84.7042 135.491 84.1963C135.576 83.8578 135.661 83.5615 135.747 83.2652C135.832 82.9689 135.917 82.6726 136.002 82.334C136.076 82.1114 136.118 81.9212 136.156 81.7494C136.204 81.5292 136.246 81.3391 136.342 81.1489C136.512 80.641 136.512 80.1331 136.002 79.7945C135.491 79.2866 134.981 79.1173 134.301 79.2866C134.216 79.2866 134.131 79.3289 134.046 79.3713C133.961 79.4136 133.876 79.4559 133.791 79.4559C133.621 78.7787 133.111 78.6094 132.601 78.6094ZM132.771 84.1963C132.601 84.154 132.431 84.1117 132.261 84.027C132.431 84.027 132.431 83.8577 132.261 83.6884L133.281 80.641C133.281 80.4717 133.451 80.3024 133.621 80.3024C133.741 80.3024 133.841 80.2812 133.933 80.2613C134.103 80.225 134.252 80.1931 134.471 80.3024C134.811 80.4717 134.811 80.641 134.811 80.9796V81.1489C134.641 81.5722 134.514 82.0377 134.386 82.5033C134.259 82.9689 134.131 83.4345 133.961 83.8577C133.961 83.9424 133.919 83.9847 133.876 84.027C133.834 84.0694 133.791 84.1117 133.791 84.1963C133.621 84.3656 133.451 84.3656 133.281 84.3656C133.111 84.281 132.941 84.2386 132.771 84.1963ZM131.333 88.7517C131.198 88.7141 131.049 88.6724 130.9 88.5982C131.24 87.4131 131.58 86.3972 131.92 85.3814C132.261 85.3814 132.601 85.5507 132.941 85.72C133.281 85.72 133.451 86.0586 133.281 86.3972C133.183 86.8844 133.029 87.3156 132.883 87.7229C132.776 88.0232 132.673 88.3108 132.601 88.5982C132.601 88.7675 132.431 88.9367 132.091 88.9367H131.75C131.655 88.8417 131.506 88.8 131.333 88.7517Z" fill="#313030"/>
<path d="M125.289 86.3973C125.277 86.4425 125.264 86.4861 125.25 86.5282C125.12 86.3973 125.133 86.3973 125.289 86.3973Z" fill="#313030"/>
<path fill-rule="evenodd" clip-rule="evenodd" d="M125.245 86.5438C125.041 87.1224 124.557 87.4004 123.928 87.2438C123.928 87.2438 123.758 87.2438 123.758 87.0745C123.248 86.7359 123.078 86.3973 123.248 85.8894C123.333 85.4662 123.461 85.0429 123.588 84.6197C123.716 84.1964 123.843 83.7732 123.928 83.3499C123.928 83.1806 123.928 83.1806 124.098 83.0113C123.993 82.9067 123.888 82.8667 123.743 82.8115C123.653 82.7773 123.548 82.7374 123.418 82.6727C123.163 83.2652 122.908 83.8153 122.653 84.3654C122.398 84.9157 122.143 85.4662 121.888 86.0587C121.774 86.0023 121.661 85.9647 121.548 85.9271C121.321 85.8518 121.094 85.7766 120.867 85.5508C120.697 85.5508 120.697 85.3815 120.697 85.2122C120.697 85.1276 120.74 85.0852 120.782 85.0429C120.825 85.0006 120.867 84.9583 120.867 84.8736C121.417 83.7791 121.939 82.6845 122.456 81.6012C123.217 80.0034 123.968 78.4299 124.778 76.9165V76.7472C124.948 76.2393 124.948 76.07 124.608 75.7314C124.778 75.3928 125.119 75.0542 125.459 75.2235C126.139 75.3928 126.479 75.5621 126.479 76.2393H126.989C127.499 76.2393 128.009 76.4086 128.519 76.7472C129.03 77.0858 129.2 77.5937 129.03 78.2709C129.03 78.3556 128.987 78.4402 128.945 78.5249C128.902 78.6095 128.86 78.6942 128.86 78.7788C128.604 79.3713 128.307 79.9639 128.009 80.5564C127.712 81.149 127.414 81.7416 127.159 82.3341C126.989 82.6727 126.819 83.0113 126.479 83.1806C126.383 83.2757 126.234 83.3174 126.062 83.3656C125.927 83.4033 125.778 83.445 125.629 83.5192C125.629 83.6885 125.629 83.6885 125.459 83.8578C125.374 84.1117 125.289 84.408 125.204 84.7043C125.119 85.0005 125.033 85.2969 124.948 85.5508V85.8894C124.948 86.2128 124.948 86.3817 125.245 86.5438ZM123.928 81.6569C124.013 81.7416 124.141 81.7839 124.268 81.8262C124.396 81.8685 124.523 81.9109 124.608 81.9955C125.119 82.1648 125.459 82.1648 125.799 81.6569C126.054 81.149 126.309 80.5988 126.564 80.0486C126.819 79.4984 127.074 78.9481 127.329 78.4402C127.329 78.4402 127.329 78.2709 127.499 78.2709C127.669 77.9323 127.499 77.763 127.329 77.5937C126.989 77.4244 126.819 77.4244 126.479 77.4244C126.309 77.4244 126.139 77.5937 125.969 77.763C125.629 78.3556 125.331 78.9905 125.033 79.6253L125.033 79.6261C124.736 80.2607 124.438 80.8954 124.098 81.4876L123.928 81.6569Z" fill="#313030"/>
<path d="M125.245 86.5438C125.259 86.5514 125.273 86.559 125.289 86.5666L125.25 86.5282L125.245 86.5438Z" fill="#313030"/>
<path fill-rule="evenodd" clip-rule="evenodd" d="M142.293 92.4922C142.803 92.4922 143.144 92.1536 143.144 91.6457C142.633 91.4764 142.633 91.307 142.633 90.6298V90.122C142.973 88.5983 143.314 86.9053 143.484 85.3816C143.654 84.5351 143.824 83.5193 143.994 82.5035C143.994 81.657 143.654 81.1491 142.973 80.8105C142.463 80.6412 141.953 80.4718 141.443 80.4718C140.423 80.4718 139.743 80.9797 139.573 81.9955C139.402 83.1807 139.232 84.1964 139.062 85.2122C138.892 85.9741 138.765 86.7782 138.637 87.5824C138.51 88.3866 138.382 89.1908 138.212 89.9527C138.212 90.122 138.17 90.3336 138.127 90.5452C138.085 90.7568 138.042 90.9685 138.042 91.1378C138.042 91.4763 138.042 91.6457 138.382 91.6457H139.402C139.487 90.9685 139.615 90.2489 139.743 89.5294C139.87 88.8099 139.998 88.0903 140.083 87.4132C140.338 87.4978 140.593 87.5401 140.848 87.5825C141.103 87.6248 141.358 87.6671 141.613 87.7518C141.528 88.175 141.486 88.5559 141.443 88.9369C141.401 89.3178 141.358 89.6987 141.273 90.122C141.273 90.3759 141.23 90.5875 141.188 90.7992C141.145 91.0108 141.103 91.2224 141.103 91.4763C141.103 92.1536 141.443 92.4922 141.953 92.4922H142.293ZM141.953 86.3973V86.736C141.668 86.665 141.413 86.6238 141.188 86.5874C140.875 86.5369 140.62 86.4957 140.423 86.3973C140.423 86.1434 140.465 85.8894 140.508 85.6355C140.55 85.3816 140.593 85.1276 140.593 84.8736C140.593 84.0271 140.763 83.1806 140.933 82.3341C140.933 81.8262 141.103 81.657 141.443 81.657C141.953 81.657 142.293 81.657 142.463 81.9955C142.633 82.1648 142.633 82.3341 142.633 82.5033C142.293 83.8577 142.123 85.0429 141.953 86.3973Z" fill="#313030"/>
<path d="M117.126 82.6727C116.786 83.0113 116.616 83.1806 116.106 83.1806C115.596 83.0113 115.256 82.6727 115.256 82.1648C114.406 82.3341 113.725 81.8262 113.215 81.3183C112.875 80.9797 112.875 80.4718 113.045 80.1332C113.13 80.0486 113.173 79.9216 113.215 79.7946C113.258 79.6677 113.3 79.5407 113.385 79.456C114.916 77.2551 116.446 75.0542 117.806 72.8533C117.806 72.7687 117.849 72.7263 117.891 72.684C117.934 72.6417 117.976 72.5994 117.976 72.5147C118.147 72.1761 118.147 72.0068 117.806 71.8375L117.636 71.6682C117.806 71.3296 118.147 71.1603 118.657 71.1603C118.827 71.1603 119.167 71.3296 119.337 71.4989C119.677 71.6682 119.677 72.0068 119.507 72.3454C119.402 72.4501 119.362 72.5547 119.306 72.6993C119.272 72.7887 119.232 72.8933 119.167 73.0226C118.402 74.1231 117.636 75.2658 116.871 76.4086C116.106 77.5512 115.341 78.6943 114.576 79.7946C114.576 79.8793 114.533 79.9216 114.491 79.9639C114.448 80.0063 114.406 80.0486 114.406 80.1332C114.235 80.4718 114.235 80.6411 114.576 80.8104C114.916 81.149 115.256 81.149 115.596 80.9797C115.766 80.9797 115.766 80.8104 115.766 80.8104C117.296 78.4402 118.827 76.2393 120.527 73.8691C120.697 73.5306 120.867 73.1919 121.207 72.8533C121.547 73.0226 121.888 73.1919 122.228 73.5305C122.313 73.6152 122.355 73.6575 122.355 73.6998C122.355 73.7422 122.313 73.7845 122.228 73.8691C122.228 73.8691 122.058 74.0384 122.058 74.2077L122.057 74.2085L122.057 74.2092C120.356 76.7482 118.656 79.2872 116.956 81.657C116.956 81.7416 116.914 81.7839 116.871 81.8262C116.829 81.8686 116.786 81.9109 116.786 81.9955C116.616 82.1648 116.786 82.3341 117.126 82.6727Z" fill="#313030"/>
<path fill-rule="evenodd" clip-rule="evenodd" d="M186.42 81.6568C186.463 81.6992 186.506 81.7415 186.506 81.8261C187.186 81.3182 187.696 80.9796 188.546 80.641L189.056 80.1331C189.736 79.2866 189.736 78.6094 189.226 77.7629C187.866 75.5621 186.336 73.5306 184.805 71.499L184.295 70.9909C183.955 70.6523 183.445 70.6523 182.935 70.8216C182.254 70.9909 181.744 71.3295 181.574 72.0067C181.404 72.176 181.404 72.176 181.404 72.3453C181.064 72.176 180.894 72.176 180.554 72.3453C180.384 72.3453 180.214 72.5146 180.044 72.6839C179.704 73.0225 179.704 73.3611 180.044 73.6997H180.214C180.554 73.5304 180.724 73.5304 180.894 73.869C180.894 73.9537 180.936 73.996 180.979 74.0383C181.021 74.0807 181.064 74.123 181.064 74.2076C181.914 75.3921 182.806 76.6188 183.698 77.8455L183.701 77.8497C184.593 79.0764 185.486 80.3031 186.335 81.4875C186.335 81.5722 186.378 81.6145 186.42 81.6568ZM187.186 79.8792C187.058 79.9638 186.931 80.0485 186.846 80.1331C186.846 80.0486 186.846 80.0061 186.824 79.985C186.803 79.9638 186.761 79.9638 186.676 79.9638C185.91 78.8634 185.145 77.8053 184.38 76.7472C183.615 75.689 182.85 74.6309 182.084 73.5304C182.084 73.4011 182.059 73.2965 182.038 73.2071C182.004 73.0625 181.979 72.9579 182.084 72.8532C182.084 72.5146 182.254 72.3453 182.594 72.176C182.934 72.176 183.105 72.176 183.275 72.3453L183.445 72.5146C183.732 72.9077 184.027 73.3084 184.326 73.715L184.326 73.716C185.444 75.2353 186.623 76.8377 187.696 78.4401C188.036 78.948 188.036 79.2866 187.526 79.6252C187.441 79.7099 187.313 79.7945 187.186 79.8792Z" fill="#313030"/>
<path fill-rule="evenodd" clip-rule="evenodd" d="M179.023 86.0587C178.513 86.0587 178.003 85.8893 177.833 85.3814C177.748 85.2968 177.705 85.2121 177.663 85.1275C177.62 85.0428 177.578 84.9582 177.493 84.8735C176.898 83.7731 176.303 82.6304 175.707 81.4876C175.112 80.3448 174.517 79.202 173.922 78.1015C173.922 78.1015 173.922 77.9322 173.752 77.9322C173.412 77.255 173.412 76.4085 174.092 75.9006C174.602 75.3927 175.282 75.0541 175.963 74.8848C176.643 74.8848 176.983 75.0541 177.323 75.562C177.493 75.7313 177.493 75.9006 177.493 75.9006C178.088 77.0011 178.683 78.1438 179.278 79.2866C179.874 80.4294 180.469 81.5722 181.064 82.6726C181.574 83.6884 181.234 84.5349 180.554 85.0429C180.384 85.72 179.534 86.0587 179.023 86.0587ZM179.363 84.7042C180.044 84.7042 180.384 84.027 180.044 83.5191C179.363 82.334 178.683 80.9796 178.173 79.7945L176.643 76.7471C176.473 76.4085 176.133 76.2392 175.792 76.4085C175.622 76.4085 175.452 76.5778 175.282 76.7471C175.112 76.9164 175.112 77.255 175.112 77.4243C175.112 77.4243 175.112 77.5936 175.282 77.5936C176.473 79.7944 177.663 81.9955 178.853 84.3656C178.853 84.4503 178.896 84.4926 178.938 84.5349C178.981 84.5773 179.023 84.6196 179.023 84.7042C178.853 84.7042 179.023 84.8735 179.363 84.7042Z" fill="#313030"/>
<path fill-rule="evenodd" clip-rule="evenodd" d="M169.501 88.4289C169.671 89.1061 170.181 89.4447 171.201 89.4447C171.711 89.4447 172.392 89.2754 173.072 88.9368C173.582 88.5982 173.752 88.0903 173.752 87.4131C173.752 87.3285 173.709 87.2438 173.667 87.1592C173.624 87.0745 173.582 86.9899 173.582 86.9052C173.157 85.7201 172.732 84.4927 172.307 83.2653C171.881 82.0378 171.456 80.8104 171.031 79.6253C171.031 79.5406 170.989 79.456 170.946 79.3713C170.904 79.2867 170.861 79.202 170.861 79.1174C170.521 78.6095 170.181 78.2709 169.671 78.2709C168.651 78.1016 167.8 78.4402 167.12 79.1174C166.78 79.456 166.61 79.7946 166.61 80.1332C166.61 80.4718 166.61 80.6411 166.78 80.9797C167.46 82.6727 168.14 84.535 168.821 86.3973C168.991 87.0744 169.161 87.7518 169.501 88.4289ZM168.14 79.6253C168.481 79.456 168.651 79.456 168.821 79.456C169.161 79.456 169.331 79.456 169.331 79.7946C169.501 80.3025 169.713 80.8527 169.926 81.4029C170.139 81.9532 170.351 82.5034 170.521 83.0113C170.776 83.6883 170.989 84.3231 171.201 84.9579C171.414 85.5927 171.626 86.228 171.881 86.9052V87.0745C172.222 87.7517 171.881 88.2596 171.201 88.2596C170.861 88.2596 170.691 88.0903 170.521 87.7517C170.436 87.4131 170.309 87.1168 170.181 86.8206C170.053 86.5243 169.926 86.228 169.841 85.8894C169.161 84.1975 168.481 82.3365 167.802 80.4754L167.8 80.4718V80.3025C167.8 80.1332 167.8 79.7946 168.14 79.6253Z" fill="#313030"/>
<path d="M135.379 23.1341C136.1 26.3172 136.84 29.5836 137.702 32.7291C137.617 32.7291 137.532 32.7715 137.447 32.8138C137.362 32.8561 137.277 32.8984 137.192 32.8984C137.122 32.8984 137.051 32.9275 136.969 32.9615C136.852 33.0096 136.711 33.0677 136.512 33.0677C136.172 33.0677 136.002 33.0677 136.002 32.7291C135.917 32.2212 135.789 31.671 135.662 31.1208C135.534 30.5706 135.407 30.0203 135.321 29.5124C135.093 28.3737 134.83 27.2349 134.563 26.0809C134.236 24.6616 133.902 23.2186 133.621 21.7246V21.5553C133.451 21.6118 133.281 21.6494 133.111 21.687C132.771 21.7622 132.431 21.8375 132.091 22.0632L131.58 21.0474C131.58 20.8781 131.58 20.7088 131.921 20.7088C132.176 20.6242 132.388 20.5818 132.601 20.5395C132.813 20.4972 133.026 20.4549 133.281 20.3702C133.706 20.2856 134.089 20.2009 134.471 20.1163C134.854 20.0316 135.236 19.947 135.662 19.8623C136.002 19.8623 136.342 19.6931 136.682 19.5238C136.852 19.8624 137.022 20.2009 137.022 20.5395C137.022 20.7088 137.022 20.8781 136.682 20.8781C136.491 20.9732 136.3 21.0149 136.079 21.0631C135.906 21.1008 135.715 21.1425 135.492 21.2167C135.322 21.2167 135.151 21.2167 134.981 21.386C135.114 21.9649 135.246 22.5483 135.379 23.1341Z" fill="#313030"/>
<path d="M160.148 80.6411C159.638 80.8104 159.298 81.149 159.468 81.8262C159.621 81.8262 159.74 81.8604 159.87 81.898C160.03 81.9442 160.208 81.9955 160.488 81.9955V82.1648C160.573 82.7573 160.701 83.3499 160.829 83.9424C160.956 84.535 161.084 85.1275 161.169 85.7201C161.339 86.5665 161.509 87.3706 161.679 88.1747C161.849 88.9789 162.019 89.7832 162.189 90.6298C162.189 90.9684 162.189 91.1377 162.359 91.307C162.529 91.4762 162.699 91.6456 163.039 91.6456C163.209 91.6456 163.549 91.6456 163.719 91.4763C164.059 91.307 164.229 90.9684 164.059 90.4605H163.889C163.727 90.4605 163.642 90.4605 163.579 90.4235C163.51 90.3831 163.468 90.2986 163.379 90.1219V89.9526C163.379 89.4447 163.209 88.7676 163.039 88.0905C162.954 87.8366 162.912 87.6247 162.869 87.4131C162.827 87.2015 162.784 86.9898 162.699 86.7359H162.869C163.124 86.6512 163.337 86.6089 163.549 86.5666C163.762 86.5243 163.974 86.4819 164.229 86.3973C164.4 86.3973 164.4 86.228 164.4 86.0587C164.4 85.8894 164.23 85.5508 164.059 85.2122C163.696 85.4534 163.333 85.5227 162.908 85.6039C162.736 85.6367 162.555 85.6714 162.359 85.7201C162.189 85.0429 162.061 84.3657 161.934 83.6885C161.806 83.0113 161.679 82.3341 161.509 81.6569C161.679 81.4876 161.849 81.4876 162.019 81.4876C162.359 81.4876 162.869 81.4876 163.209 81.3183C163.549 81.149 163.549 81.1489 163.549 80.9797C163.549 80.6411 163.379 80.3026 163.209 79.9641C162.954 80.0487 162.742 80.0908 162.529 80.1332C162.317 80.1755 162.104 80.2178 161.849 80.3025C161.594 80.3871 161.296 80.4294 160.999 80.4717C160.701 80.5141 160.403 80.5564 160.148 80.6411Z" fill="#313030"/>
<path d="M126.479 36.2844C126.309 36.3691 126.096 36.4961 125.884 36.623C125.671 36.75 125.459 36.877 125.289 36.9616C125.119 36.9616 124.948 36.9616 124.948 36.7923C124.948 36.7923 124.949 36.623 124.778 36.623C123.418 33.4063 122.058 30.1896 120.527 26.9729C120.417 26.6449 120.237 26.317 120.031 25.9434C119.918 25.7385 119.798 25.5198 119.677 25.2799C119.677 25.1953 119.635 25.153 119.592 25.1106C119.55 25.0683 119.507 25.026 119.507 24.9413C119.677 24.8567 119.89 24.7297 120.102 24.6027C120.315 24.4757 120.527 24.3488 120.697 24.2641C120.867 24.2641 121.037 24.2641 121.037 24.4334C121.037 24.5181 121.08 24.5604 121.122 24.6027C121.165 24.645 121.207 24.6874 121.207 24.772C122.568 27.9887 123.928 31.2054 125.459 34.4221C125.544 34.6761 125.671 34.93 125.799 35.184C125.926 35.4379 126.054 35.6919 126.139 35.9458C126.479 35.9458 126.479 36.1151 126.479 36.2844Z" fill="#313030"/>
<path d="M161.849 41.8713H168.821V44.0722H161.849V41.8713Z" fill="#313030"/>
</svg>
